<svg height="100" viewBox="0 0 340 100" width="340" xmlns="http://www.w3.org/2000/svg"><path d="m36.32 22.75v-.01l.01.01z" fill="#ff0"/><path d="m18.15 40.47-.01-.03.02.01v.04z" fill="#ff0"/><g fill="#a74df0"><path d="m34.41 68.09-5.02 6.91-.02-.01-11.21-3.64-18.16-5.9 21.88-13.47-1.3 2.63-2.42 4.9-.02.05.02.03 4.27 5.86h9.27z"/><path d="m58.78 84.55 6.94-9.55-5.02-6.91 5.02-2.64h6.93l.55 3.18 3.74 21.82z"/><path d="m70 50-15.51-9.55-6.94 9.55-6.94-9.55 25.11-15.45 1.43 8.33.71 4.17.96 5.59.64 3.73z"/></g><path d="m54.49 28.65-13.88 11.8 6.94 9.55-11.22 3.65-6.94-28.65 8.37 1.22 4.18.6 5.61.82 3.74.54z" fill="#ffb700"/><path d="m65.72 75-6.94 9.55-11.23 15.45-6.05-25 6.05 5.9 6.94-2.25 2.86-8.8 3.35-1.76z" fill="#ffb700"/><path d="m95.11 34.55-11.23 15.45-6.94-9.55-8.12 2.64-.96-5.59 2.14-6.6 3.2.47z" fill="#ffb700"/><path d="m47.55 50v11.81l-29.41-2.25 3.74-7.58 1.87-3.79 2.52-5.1 1.69-3.4v-.01l1.41-2.86 6.96 16.83z" fill="#e61029"/><path d="m58.78 15.45-11.23 3.65v8.54l-5.61-.82-5.61-4.07-.01-.01 1.43-2.89 9.8-19.85z" fill="#e61029"/><path d="m95.11 65.45-25.66-1.96 7.49-3.94v-7.3l-7.48-5.43-.64-3.73 8.12-2.64 6.94 9.55z" fill="#e61029"/><path d="m54.49 71.35 2.86-1.5-2.86 8.8-6.94 2.25 11.23-27.25z" fill="#689b21"/><path d="m76.94 9.55-3.74 21.82-3.2-.47-2.14 6.6-.71-4.17z" fill="#689b21"/><path d="m76.94 52.25v7.3l-22.45-19.1 15.51 9.55-.54-3.18z" fill="#028bae"/><path d="m41.94 26.82-4.18-.6-19.6-16.67 19.59 10.3-1.43 2.89v.01h.01z" fill="#028bae"/><path d="m65.72 25-25.11 15.45 13.88-11.8-3.2-.47 7.49-5.43z" fill="#6d3cb0"/><path d="m23.75 48.19-1.87 3.79-21.88 13.47 15.85-15.45 2.31 2.25z" fill="#6d3cb0"/><path d="m18.16 40.45-.01.02" fill="#ff0"/><path d="m29.37 36.82-1.41 2.86-2.86-8.78 4.29-5.9 6.94 28.65z" fill="#bf8900"/><path d="m37.75 80.15 2.86-1.5-2.14-6.6 3.03 2.95 6.05 25z" fill="#bf8900"/><path d="m76.94 59.55-7.49 3.94-3.73 1.96-5.02 2.64-3.35 1.76-2.86 1.5 4.29-17.7-11.23-3.65 6.94-9.55z" fill="#03beed"/><path d="m37.76 26.22-8.37-1.22-4.29 5.9 2.86 8.78v.01l-1.69 3.4-8.11-2.64v-30.9z" fill="#03beed"/><path d="m38.47 72.05-4.06-3.96-5.02 6.91-.02-.01-11.21-3.64v19.1l19.59-10.3 2.86-1.5z" fill="#03beed"/><path d="m47.55 61.81-18.18 1.37 2.33 2.27h-9.27l-4.29-5.89z" fill="#ad0c1f"/><path d="m95.11 65.45-21.91 3.18-.55-3.18h-6.93l3.73-1.96z" fill="#ad0c1f"/><path d="m76.94 9.55-9.79 23.78-1.43-8.33-6.94-2.25-7.49 5.43-3.74-.54v-8.54z" fill="#8ed927"/><path d="m58.78 53.65-11.23 27.25-6.05-5.9-3.03-2.95-4.06-3.96-2.71-2.64-2.33-2.27 18.18-1.37v-11.81z" fill="#8ed927"/><path d="m26.27 43.09-2.52 5.1-5.59 4.06-18.16-17.7 18.16-5.9v11.8l-.02-.01.01.03.01.02v-.04z" fill="#8ed927"/><g opacity=".85"><path d="m139.49 54.98-2.14-19.37c-.21-1.89-.29-4.12-.29-4.12h-.08s-.42 2.18-1.01 4.12l-5.75 19.37h-3.78l-5.8-19.37c-.59-1.93-1.01-4.12-1.01-4.12h-.08s-.08 2.23-.29 4.12l-2.14 19.37h-5.5l3.78-30.41h6.72l5.29 17.77c.5 1.76.88 3.91.88 3.91h.08s.38-2.14.88-3.91l5.25-17.77h6.72l3.78 30.41h-5.5z"/><path d="m158.17 55.49c-6.8 0-10.21-2.69-10.21-7.31 0-6.18 6.43-7.39 13.27-7.77v-1.18c0-2.35-1.64-3.23-4.24-3.23-2.14 0-4.75.67-6.34 1.34l-1.43-3.86c1.89-.8 5.12-1.64 8.4-1.64 5.8 0 9.03 2.27 9.03 8.07v13.95c-1.68.88-5.08 1.64-8.49 1.64zm3.07-11.43c-4.2.21-7.9.59-7.9 3.99 0 2.14 1.68 3.36 4.66 3.36 1.22 0 2.65-.21 3.24-.46z"/><path d="m178.92 55.32c-4.37 0-6.43-2.39-6.43-7.14v-11.55h-2.9v-4.28h2.9v-5.04l5.63-1.64v6.68h4.24v4.28h-4.24v11.17c0 1.85 1.13 2.48 2.6 2.48.59 0 1.26-.17 1.64-.34v4.75c-.67.34-2.06.63-3.44.63z"/><path d="m199.12 54.98v-14.79c0-2.48-1.51-3.74-4.12-3.74-1.13 0-2.39.34-3.28.84v17.69h-5.71v-32.97h5.71v11.01c1.34-.63 3.07-1.05 4.75-1.05 5.33 0 8.4 2.69 8.4 7.65v15.37h-5.75z"/><path d="m215.63 55.49c-2.81 0-5.63-.76-7.31-1.64l1.85-4.37c1.13.71 3.66 1.47 5.29 1.47 2.06 0 3.4-.97 3.4-2.48 0-1.68-1.47-2.39-3.49-3.11-2.86-1.05-6.47-2.39-6.47-6.85 0-3.99 3.02-6.68 8.32-6.68 2.9 0 5.25.71 6.97 1.64l-1.76 3.91c-.97-.59-2.98-1.3-4.5-1.3-2.02 0-3.19 1.01-3.19 2.35 0 1.72 1.47 2.39 3.44 3.11 2.98 1.09 6.64 2.35 6.64 6.93 0 4.24-3.15 7.02-9.2 7.02z"/><path d="m258.01 54.98h-5.75l-4.16-17.64c-.46-2.02-.76-4.33-.76-4.33h-.08s-.29 2.31-.76 4.33l-4.12 17.64h-5.75l-7.52-30.41h5.97l3.95 19.11c.38 1.81.67 4.03.67 4.03h.08s.25-2.23.67-4.03l4.41-19.11h4.92l4.41 19.11c.42 1.81.67 4.03.67 4.03h.08s.29-2.23.67-4.03l3.95-19.11h5.96l-7.52 30.41z"/><path d="m276.49 55.49c-6.59 0-10.25-5.08-10.25-11.85s3.65-11.8 10.25-11.8 10.25 5.04 10.25 11.8-3.65 11.85-10.25 11.85zm0-19.16c-3.02 0-4.54 2.73-4.54 7.27s1.51 7.23 4.54 7.23 4.54-2.69 4.54-7.23-1.51-7.27-4.54-7.27z"/><path d="m301.77 36.8c-.71-.21-1.64-.34-2.56-.34-1.05 0-2.14.17-2.86.46v18.06h-5.71v-21.51c2.35-.92 5.59-1.64 9.24-1.64 1.18 0 2.18.08 2.94.21l-1.05 4.75z"/><path d="m306.01 54.98v-32.97h5.71v32.98h-5.71z"/><path d="m327.01 55.49c-7.31 0-11.3-4.33-11.3-11.68 0-6.97 3.65-11.68 10.59-11.68 1.22 0 2.52.21 3.23.46v-10.59h5.75v31.84c-1.64.88-4.83 1.64-8.28 1.64zm2.52-18.61c-.46-.21-1.64-.42-2.65-.42-3.57 0-5.46 2.98-5.46 7.27 0 4.58 1.93 7.27 5.46 7.27 1.01 0 2.18-.21 2.65-.46v-13.65z"/></g><g opacity=".6"><path d="m111.41 75.51v-15.2h2.96v12.72h4.72v2.48h-7.69z"/><path d="m125.96 75.77c-3.3 0-5.12-2.54-5.12-5.92s1.83-5.9 5.12-5.9 5.12 2.52 5.12 5.9-1.83 5.92-5.12 5.92zm0-9.58c-1.51 0-2.27 1.36-2.27 3.63s.76 3.61 2.27 3.61 2.27-1.34 2.27-3.61-.76-3.63-2.27-3.63z"/><path d="m140.22 75.51v-7.45c0-1.13-.69-1.83-1.99-1.83-.67 0-1.32.13-1.7.27v9.01h-2.86v-10.75c1.2-.48 2.65-.82 4.51-.82 3.36 0 4.91 1.39 4.91 3.82v7.75h-2.88z"/><path d="m151.33 75.77c-3.65 0-5.65-2.16-5.65-5.84 0-3.49 1.83-5.84 5.29-5.84.61 0 1.26.1 1.62.23v-5.29h2.88v15.92c-.82.44-2.41.82-4.14.82zm1.26-9.3c-.23-.1-.82-.21-1.32-.21-1.79 0-2.73 1.49-2.73 3.63 0 2.29.97 3.63 2.73 3.63.5 0 1.09-.1 1.32-.23z"/><path d="m163.17 75.77c-3.3 0-5.12-2.54-5.12-5.92s1.83-5.9 5.12-5.9 5.12 2.52 5.12 5.9-1.83 5.92-5.12 5.92zm0-9.58c-1.51 0-2.27 1.36-2.27 3.63s.76 3.61 2.27 3.61 2.27-1.34 2.27-3.61-.76-3.63-2.27-3.63z"/><path d="m177.43 75.51v-7.45c0-1.13-.69-1.83-2-1.83-.67 0-1.32.13-1.7.27v9.01h-2.86v-10.75c1.2-.48 2.64-.82 4.51-.82 3.36 0 4.91 1.39 4.91 3.82v7.75h-2.88z"/></g></svg>