<svg height="100" viewBox="0 0 340 100" width="340" xmlns="http://www.w3.org/2000/svg"><path d="m36.32 22.75v-.01l.01.01z" fill="#ff0"/><path d="m18.15 40.47-.01-.03.02.01v.04z" fill="#ff0"/><g fill="#a74df0"><path d="m34.41 68.09-5.02 6.91-.02-.01-11.21-3.64-18.16-5.9 21.88-13.47-1.3 2.63-2.42 4.9-.02.05.02.03 4.27 5.86h9.27z"/><path d="m58.78 84.55 6.94-9.55-5.02-6.91 5.02-2.64h6.93l.55 3.18 3.74 21.82z"/><path d="m70 50-15.51-9.55-6.94 9.55-6.94-9.55 25.11-15.45 1.43 8.33.71 4.17.96 5.59.64 3.73z"/></g><path d="m54.49 28.65-13.88 11.8 6.94 9.55-11.22 3.65-6.94-28.65 8.37 1.22 4.18.6 5.61.82 3.74.54z" fill="#ffb700"/><path d="m65.72 75-6.94 9.55-11.23 15.45-6.05-25 6.05 5.9 6.94-2.25 2.86-8.8 3.35-1.76z" fill="#ffb700"/><path d="m95.11 34.55-11.23 15.45-6.94-9.55-8.12 2.64-.96-5.59 2.14-6.6 3.2.47z" fill="#ffb700"/><path d="m47.55 50v11.81l-29.41-2.25 3.74-7.58 1.87-3.79 2.52-5.1 1.69-3.4v-.01l1.41-2.86 6.96 16.83z" fill="#e61029"/><path d="m58.78 15.45-11.23 3.65v8.54l-5.61-.82-5.61-4.07-.01-.01 1.43-2.89 9.8-19.85z" fill="#e61029"/><path d="m95.11 65.45-25.66-1.96 7.49-3.94v-7.3l-7.48-5.43-.64-3.73 8.12-2.64 6.94 9.55z" fill="#e61029"/><path d="m54.49 71.35 2.86-1.5-2.86 8.8-6.94 2.25 11.23-27.25z" fill="#689b21"/><path d="m76.94 9.55-3.74 21.82-3.2-.47-2.14 6.6-.71-4.17z" fill="#689b21"/><path d="m76.94 52.25v7.3l-22.45-19.1 15.51 9.55-.54-3.18z" fill="#028bae"/><path d="m41.94 26.82-4.18-.6-19.6-16.67 19.59 10.3-1.43 2.89v.01h.01z" fill="#028bae"/><path d="m65.72 25-25.11 15.45 13.88-11.8-3.2-.47 7.49-5.43z" fill="#6d3cb0"/><path d="m23.75 48.19-1.87 3.79-21.88 13.47 15.85-15.45 2.31 2.25z" fill="#6d3cb0"/><path d="m18.16 40.45-.01.02" fill="#ff0"/><path d="m29.37 36.82-1.41 2.86-2.86-8.78 4.29-5.9 6.94 28.65z" fill="#bf8900"/><path d="m37.75 80.15 2.86-1.5-2.14-6.6 3.03 2.95 6.05 25z" fill="#bf8900"/><path d="m76.94 59.55-7.49 3.94-3.73 1.96-5.02 2.64-3.35 1.76-2.86 1.5 4.29-17.7-11.23-3.65 6.94-9.55z" fill="#03beed"/><path d="m37.76 26.22-8.37-1.22-4.29 5.9 2.86 8.78v.01l-1.69 3.4-8.11-2.64v-30.9z" fill="#03beed"/><path d="m38.47 72.05-4.06-3.96-5.02 6.91-.02-.01-11.21-3.64v19.1l19.59-10.3 2.86-1.5z" fill="#03beed"/><path d="m47.55 61.81-18.18 1.37 2.33 2.27h-9.27l-4.29-5.89z" fill="#ad0c1f"/><path d="m95.11 65.45-21.91 3.18-.55-3.18h-6.93l3.73-1.96z" fill="#ad0c1f"/><path d="m76.94 9.55-9.79 23.78-1.43-8.33-6.94-2.25-7.49 5.43-3.74-.54v-8.54z" fill="#8ed927"/><path d="m58.78 53.65-11.23 27.25-6.05-5.9-3.03-2.95-4.06-3.96-2.71-2.64-2.33-2.27 18.18-1.37v-11.81z" fill="#8ed927"/><path d="m26.27 43.09-2.52 5.1-5.59 4.06-18.16-17.7 18.16-5.9v11.8l-.02-.01.01.03.01.02v-.04z" fill="#8ed927"/><g opacity=".85"><path d="m139.2 38.26c-.08-.29-.17-.88-.21-1.47-.08.63-.38 1.3-.46 1.47l-6.39 17.1c-.25.67-.76 1.13-2.02 1.13-.59 0-3.07-.13-3.44-1.13l-6.43-17.1c-.13-.34-.38-1.13-.42-1.72l-.17 1.72-2.27 17.05c-.17 1.09-3.02 1.18-4.54 1.18-.59 0-1.89-.34-1.64-1.68l4.79-28.44c.21-1.01 2.77-1.05 3.78-1.05.8 0 1.55.34 1.81 1.05l7.14 19.03c.25.71.71 1.85.84 2.35.08-.5.55-1.6.8-2.31l6.93-19.07c.38-.92 3.11-1.05 3.74-1.05 1.3 0 1.81.55 1.89 1.05l4.62 28.44c.25 1.43-1.09 1.68-1.68 1.68-1.47 0-4.33-.04-4.49-1.18z"/><path d="m167.25 54.09c0 .84-3.19 2.39-9.2 2.39-6.6 0-8.65-1.72-8.65-7.06 0-5 1.93-6.89 6.93-6.89 2.02 0 3.78.34 5.21.67v-1.55c0-2.73-1.93-3.28-4.58-3.28-1.85 0-4.49.38-5.25.46-1.18 0-1.26-2.69-1.26-3.28 0-1.13.17-1.34.59-1.51.8-.25 4.03-.67 7.18-.67 5.96 0 9.03 1.43 9.03 8.11v12.6zm-5.71-6.63c-.59-.29-2.27-.59-3.44-.59-2.18 0-2.98.63-2.98 2.73 0 1.93.8 2.56 3.07 2.56 1.3 0 2.69-.21 3.36-.46v-4.24z"/><path d="m178.76 38.68v10.21c0 1.85.67 2.65 2.23 2.65.84 0 1.47-.13 1.97-.17 1.05 0 1.26.63 1.26 3.61.04.38-.17.76-.88 1.01-1.09.38-3.23.5-4.33.5-4.03 0-6.18-1.72-6.18-6.76v-11.05h-2.1c-.8 0-1.01-.55-1.01-1.43s.04-3.44 1.05-3.44h2.06v-4.49c0-.88 3.36-.92 4.41-.92.76 0 1.51.42 1.51 1.05v4.37h4.24c.8 0 1.01.5 1.01 1.39s-.08 3.49-1.05 3.49h-4.2z"/><path d="m199.59 41.91c0-2.39-.59-3.23-2.35-3.23-1.6 0-4.12.76-4.2 1.09v15.58c0 .76-.84 1.13-1.6 1.13-1.05 0-4.33-.08-4.33-1.01v-30.08c0-.88 3.36-.92 4.37-.92.76 0 1.55.42 1.55 1.13v9.33c1.72-.92 3.74-1.55 6.05-1.55 6.09 0 6.47 3.91 6.47 8.19v13.78c0 .76-.88 1.13-1.64 1.13-1.05 0-4.33-.04-4.33-1.01v-13.57z"/><path d="m216.01 51.57c2.9 0 3.82-.63 3.82-1.76 0-3.4-10.63-1.47-10.63-9.58 0-4.91 3.02-6.85 9.41-6.85 2.86 0 4.41.13 5.63.34.76.13.88.42.88 1.39 0 1.55-.38 3.53-1.47 3.53-.71-.04-2.27-.29-4.5-.29-2.65 0-4.03.42-4.03 1.68 0 3.23 10.63 1.43 10.63 9.66 0 4.87-2.73 6.81-9.58 6.81-2.52 0-5.04-.21-6.68-.8-.88-.34-.97-.67-.76-1.6.55-3.19 1.01-3.44 1.81-3.23 1.51.38 3.15.71 5.46.71z"/><path d="m262.05 26.54c.25-1.01 2.65-1.22 4.54-1.22 1.18 0 1.81.55 1.81 1.39 0 .21-.04.46-.13.71l-8.7 27.94c-.25.71-.8 1.13-1.55 1.13-1.05 0-4.08-.13-4.37-1.05l-5.54-18.9c-.17-.5-.17-1.13-.21-1.68-.04.55-.04 1.18-.21 1.68l-5.46 18.82c-.21.71-.8 1.13-1.51 1.13-1.05 0-4.07-.13-4.37-1.05l-8.82-28.02c-.08-.25-.13-.5-.13-.71 0-.84.63-1.39 1.81-1.39 1.89 0 4.28.21 4.54 1.22l5.5 20.25c.13.46.17 1.3.21 1.76.04-.46.08-1.3.17-1.76l5.08-20.16c.29-1.09 3.61-1.3 4.54-1.3 1.13 0 1.64.55 1.85 1.39l5.42 20.08c.13.46.17 1.3.21 1.76.04-.46.08-1.3.17-1.76l5.17-20.25z"/><path d="m268.13 41.66c0-6.55 2.65-8.28 9.41-8.28h.25c6.81 0 9.45 1.72 9.45 8.28v6.55c0 6.55-2.65 8.28-9.45 8.28h-.25c-6.76 0-9.41-1.72-9.41-8.28zm9.75 9.58c2.73 0 3.45-.76 3.45-2.98v-6.6c0-2.35-.71-3.02-3.45-3.02h-.42c-2.69 0-3.4.63-3.4 3.02v6.6c0 2.35.67 2.98 3.4 2.98z"/><path d="m300.89 38.68c-1.6 0-3.78.5-3.78.76v15.92c0 .76-.8 1.13-1.51 1.13-1.01 0-4.33-.08-4.33-1.01v-18.57c0-2.23 4.54-3.53 9.33-3.53.71 0 1.43.04 2.77.21.8.13 1.05.42 1.05 1.3 0 2.9-.55 3.99-1.18 3.95-.59-.04-1.22-.17-2.35-.17z"/><path d="m317.48 54.22c.08.92-.21 1.39-.84 1.6-1.55.5-2.6.67-3.95.67-3.23 0-5.54-1.47-5.54-6.17v-24.91c0-.88 3.4-.92 4.41-.92.76 0 1.51.38 1.51 1.05v23.65c0 1.18.13 1.76 1.22 1.76.63 0 1.34-.21 1.93-.25.76 0 1.22 2.6 1.26 3.53z"/><path d="m337.43 53.25c0 .76-.13 1.09-.92 1.6-1.39.76-5.5 1.64-8.86 1.64-7.94 0-8.74-3.57-8.74-8.11v-6.55c0-4.24 1.13-8.44 6.93-8.44 1.76 0 3.87.42 5.67 1.05v-8.95c0-.97 3.36-1.01 4.37-1.01.88 0 1.55.38 1.55 1.55zm-5.92-13.82c-.88-.29-2.48-.76-3.78-.76-2.39 0-2.86 1.39-2.86 3.32v6.26c0 2.06.46 3.32 3.02 3.32 1.13 0 2.86-.21 3.61-.46v-11.68z"/></g><g opacity=".6"><path d="m112.9 74.51c-.38 0-.85-.06-.85-.32v-10.9c0-.27 1.03-.33 1.42-.33.27 0 .47.19.47.43v9.43h4.53c.21 0 .38.21.38.46 0 .35-.05 1.23-.3 1.23z"/><path d="m120.02 68.96c0-2.27.98-2.95 3.38-2.95h.08c2.43 0 3.41.68 3.41 2.95v2.8c0 2.27-.98 2.95-3.41 2.95h-.08c-2.42 0-3.38-.68-3.38-2.95zm3.49 4.16c1.23 0 1.59-.4 1.59-1.36v-2.81c0-1.01-.36-1.37-1.59-1.37h-.13c-1.22 0-1.6.36-1.6 1.37v2.81c0 1 .36 1.36 1.58 1.36h.14z"/><path d="m133.61 68.75c0-.79-.17-1.11-1.03-1.11-.79 0-2.02.36-2.02.54v6.13c0 .28-.24.39-.49.39-.33 0-1.29-.05-1.29-.32v-7.01c0-.58 2.07-1.37 4.12-1.37s2.5.92 2.5 2.81v5.5c0 .28-.27.39-.5.39-.35 0-1.28-.05-1.28-.32v-5.64z"/><path d="m143.86 73.55c0 .32-.03.44-.32.6-.52.27-2.01.55-3.16.55-2.83 0-3.1-1.37-3.1-2.97v-2.67c0-1.48.38-3.06 2.57-3.06.76 0 1.61.21 2.21.43v-3.44c0-.28 1-.32 1.31-.32.29 0 .47.13.47.52v10.36zm-1.78-5.57c-.24-.13-1-.38-1.67-.38-1.2 0-1.33.74-1.33 1.63v2.37c0 .95.13 1.63 1.42 1.63.57 0 1.37-.13 1.58-.22v-5.02z"/><path d="m145.76 68.96c0-2.27.98-2.95 3.38-2.95h.08c2.43 0 3.41.68 3.41 2.95v2.8c0 2.27-.98 2.95-3.41 2.95h-.08c-2.42 0-3.38-.68-3.38-2.95zm3.49 4.16c1.23 0 1.59-.4 1.59-1.36v-2.81c0-1.01-.36-1.37-1.59-1.37h-.13c-1.22 0-1.6.36-1.6 1.37v2.81c0 1 .36 1.36 1.58 1.36h.14z"/><path d="m159.34 68.75c0-.79-.17-1.11-1.03-1.11-.79 0-2.02.36-2.02.54v6.13c0 .28-.24.39-.49.39-.33 0-1.29-.05-1.29-.32v-7.01c0-.58 2.07-1.37 4.12-1.37s2.5.92 2.5 2.81v5.5c0 .28-.27.39-.5.39-.35 0-1.28-.05-1.28-.32v-5.64z"/><path d="m176.63 66.9c-.02-.11-.05-.33-.06-.55-.03.22-.13.46-.16.55l-2.67 7.44c-.08.21-.25.36-.63.36-.24 0-.95-.06-1.06-.36l-2.7-7.44c-.05-.14-.13-.39-.14-.6-.02.21-.03.49-.05.58l-1.04 7.44c-.05.35-.87.38-1.36.38-.17 0-.57-.11-.49-.51l1.8-10.88c.05-.3.79-.35 1.14-.35.27 0 .47.11.57.35l2.86 7.93c.11.27.25.68.32.88.02-.21.17-.6.27-.87l2.83-7.94c.11-.28.88-.35 1.14-.35.38 0 .54.17.57.35l1.75 10.88c.06.43-.33.51-.5.51-.51 0-1.31-.03-1.36-.38l-1.01-7.42z"/><path d="m185.94 66.32c0-.27.96-.32 1.29-.32.24 0 .49.11.49.39v7.22c0 .4-.13.47-.33.55-.57.25-1.83.54-3.24.54-2.73 0-3.05-1.23-3.05-2.94v-5.45c0-.27.93-.32 1.28-.32.24 0 .51.11.51.39v5.39c0 .95.27 1.45 1.36 1.45.68 0 1.69-.21 1.69-.27v-6.65z"/><path d="m191.99 73.22c1.18 0 1.63-.28 1.63-.88 0-1.61-4.08-1.03-4.08-3.96 0-1.74 1.14-2.37 3.27-2.37 1 0 1.59.05 2.08.13.25.05.3.14.3.43 0 .49-.13 1.06-.46 1.06-.36-.03-.98-.13-1.77-.13-1.04 0-1.66.21-1.66.82 0 1.48 4.09.95 4.09 3.98 0 1.74-1.01 2.42-3.36 2.42-.88 0-1.78-.08-2.46-.3-.27-.11-.3-.21-.25-.49.16-.95.3-1.03.57-.96.63.16 1.26.27 2.1.27z"/><path d="m200.57 74.7c-2.54 0-3.62-.95-3.62-3.66v-2.12c0-2.02 1.04-2.92 3.25-2.92h.21c2.51 0 3.17.9 3.17 2.51v.4c0 2.01-.54 2.43-4.91 2.43 0 1.42.66 1.88 2.31 1.88.84 0 1.78-.19 2.23-.22.21-.02.3.05.32.88.02.35-.05.47-.25.54-.7.19-1.86.28-2.7.28zm1.28-6.2c0-.82-.39-1.14-1.55-1.14-1.07 0-1.63.32-1.63 1.36v1.26c2.79 0 3.17-.19 3.17-1.22v-.27z"/><path d="m210.27 66.32c0-.27.96-.32 1.29-.32.24 0 .49.11.49.39v7.22c0 .4-.13.47-.33.55-.57.25-1.83.54-3.24.54-2.73 0-3.05-1.23-3.05-2.94v-5.45c0-.27.93-.32 1.28-.32.24 0 .51.11.51.39v5.39c0 .95.27 1.45 1.36 1.45.68 0 1.69-.21 1.69-.27v-6.65z"/><path d="m218.62 68.94c0-.66-.13-1.3-.88-1.3-1.12 0-1.91.36-1.91.52v6.14c0 .22-.22.39-.46.39-.36 0-1.31-.05-1.31-.32v-7.01c0-.51 1.6-1.37 3.95-1.37 1 0 1.42.35 1.67.69.57-.38 1.61-.69 2.98-.69 2.15 0 2.32 1.5 2.32 2.94v5.37c0 .22-.22.39-.46.39-.36 0-1.31-.05-1.31-.32v-5.45c0-.68-.19-1.3-.92-1.3-1.14 0-1.9.36-1.9.54v6.13c0 .22-.24.39-.49.39-.35 0-1.29-.05-1.29-.32v-5.45z"/><path d="m230.41 68.96c0-2.27.98-2.95 3.38-2.95h.08c2.43 0 3.41.68 3.41 2.95v2.8c0 2.27-.98 2.95-3.41 2.95h-.08c-2.42 0-3.38-.68-3.38-2.95zm3.49 4.16c1.23 0 1.59-.4 1.59-1.36v-2.81c0-1.01-.36-1.37-1.59-1.37h-.13c-1.22 0-1.6.36-1.6 1.37v2.81c0 1 .36 1.36 1.58 1.36h.14z"/><path d="m241.62 66.18h1.69c.17 0 .33.1.33.43 0 .25-.08 1.17-.35 1.17h-1.67v6.54c0 .3-.35.39-.58.39-.54 0-1.2 0-1.2-.32v-6.62h-1.06c-.19 0-.32-.17-.32-.35 0-.33.06-1.25.33-1.25h1.04v-1.33c0-1.44.9-2.18 2.53-2.18.58 0 1.04.09 1.36.19.25.08.35.32.35.63 0 .44-.13.96-.38.95-.28-.09-.5-.17-1.04-.17-.58 0-1.03.11-1.03.82v1.09z"/><path d="m258.47 66.9c-.02-.11-.05-.33-.06-.55-.03.22-.13.46-.16.55l-2.67 7.44c-.08.21-.25.36-.63.36-.24 0-.95-.06-1.06-.36l-2.7-7.44c-.05-.14-.13-.39-.14-.6-.02.21-.03.49-.05.58l-1.04 7.44c-.05.35-.87.38-1.36.38-.17 0-.57-.11-.49-.51l1.8-10.88c.05-.3.79-.35 1.14-.35.27 0 .47.11.57.35l2.86 7.93c.11.27.25.68.32.88.02-.21.17-.6.27-.87l2.83-7.94c.11-.28.88-.35 1.14-.35.38 0 .54.17.57.35l1.75 10.88c.06.43-.33.51-.5.51-.51 0-1.31-.03-1.36-.38l-1.01-7.42z"/><path d="m268.92 73.85c0 .32-1.31.85-3.33.85-2.27 0-3.11-.65-3.11-2.61 0-1.85.81-2.53 2.59-2.53.8 0 1.61.16 2.13.3v-1c0-1.01-.6-1.37-1.85-1.37-.73 0-1.64.14-2.04.19-.35.02-.41-.76-.41-.98 0-.33.05-.41.19-.46.27-.09 1.45-.25 2.62-.25 2.15 0 3.21.54 3.21 2.84v5.01zm-1.73-2.67c-.16-.14-1.07-.3-1.66-.3-.93 0-1.34.32-1.34 1.28 0 .9.41 1.23 1.44 1.23.63 0 1.37-.14 1.56-.27z"/><path d="m273.18 67.64v4.45c0 .76.27 1.11.92 1.11.33 0 .55-.05.79-.08.3-.02.38.19.39 1.07 0 .13-.09.25-.33.33-.39.14-1.03.17-1.41.17-1.34 0-2.13-.57-2.13-2.35v-4.71h-.92c-.25 0-.33-.16-.33-.43 0-.28.03-1.04.36-1.04h.88v-1.8c0-.25.95-.28 1.31-.28.25 0 .46.16.46.38v1.71h1.67c.25 0 .33.14.33.41 0 .3-.03 1.06-.36 1.06h-1.64z"/><path d="m281.54 69.11c0-1.04-.21-1.52-1.06-1.52-.81 0-1.93.43-1.99.6v6.11c0 .28-.25.39-.49.39-.35 0-1.29-.05-1.29-.32v-11.42c0-.27.98-.3 1.29-.3.25 0 .49.14.49.4v3.63c.62-.36 1.53-.69 2.51-.69 2.16 0 2.32 1.37 2.32 3v5.31c0 .28-.27.39-.51.39-.35 0-1.28-.03-1.28-.32v-5.27z"/><path d="m288.76 74.7c-2.54 0-3.62-.95-3.62-3.66v-2.12c0-2.02 1.04-2.92 3.25-2.92h.21c2.51 0 3.17.9 3.17 2.51v.4c0 2.01-.54 2.43-4.91 2.43 0 1.42.66 1.88 2.31 1.88.84 0 1.78-.19 2.23-.22.21-.02.3.05.32.88.02.35-.05.47-.25.54-.7.19-1.86.28-2.7.28zm1.28-6.2c0-.82-.39-1.14-1.55-1.14-1.07 0-1.63.32-1.63 1.36v1.26c2.8 0 3.17-.19 3.17-1.22v-.27z"/><path d="m298.21 68.94c0-.66-.13-1.3-.88-1.3-1.12 0-1.91.36-1.91.52v6.14c0 .22-.22.39-.46.39-.36 0-1.31-.05-1.31-.32v-7.01c0-.51 1.6-1.37 3.95-1.37 1 0 1.42.35 1.67.69.57-.38 1.61-.69 2.98-.69 2.15 0 2.32 1.5 2.32 2.94v5.37c0 .22-.22.39-.46.39-.36 0-1.31-.05-1.31-.32v-5.45c0-.68-.19-1.3-.92-1.3-1.14 0-1.9.36-1.9.54v6.13c0 .22-.24.39-.49.39-.35 0-1.29-.05-1.29-.32v-5.45z"/><path d="m312.68 73.85c0 .32-1.31.85-3.33.85-2.27 0-3.11-.65-3.11-2.61 0-1.85.81-2.53 2.59-2.53.8 0 1.61.16 2.13.3v-1c0-1.01-.6-1.37-1.85-1.37-.73 0-1.64.14-2.04.19-.35.02-.41-.76-.41-.98 0-.33.05-.41.19-.46.27-.09 1.45-.25 2.62-.25 2.15 0 3.21.54 3.21 2.84v5.01zm-1.72-2.67c-.16-.14-1.07-.3-1.66-.3-.93 0-1.34.32-1.34 1.28 0 .9.41 1.23 1.44 1.23.63 0 1.37-.14 1.56-.27z"/><path d="m316.95 67.64v4.45c0 .76.27 1.11.92 1.11.33 0 .55-.05.79-.08.3-.02.38.19.39 1.07 0 .13-.09.25-.33.33-.39.14-1.03.17-1.41.17-1.34 0-2.13-.57-2.13-2.35v-4.71h-.92c-.25 0-.33-.16-.33-.43 0-.28.03-1.04.36-1.04h.88v-1.8c0-.25.95-.28 1.31-.28.25 0 .46.16.46.38v1.71h1.67c.25 0 .33.14.33.41 0 .3-.03 1.06-.36 1.06h-1.64z"/><path d="m323.98 73.99c.02.28-.08.43-.3.51-.5.16-.87.21-1.28.21-1.22 0-1.97-.57-1.97-2.23v-6.18c0-.27 1.01-.3 1.31-.3.25 0 .47.13.47.38v5.76c0 .58.09.9.65.9.22 0 .47-.06.74-.11.24 0 .36.79.38 1.06zm-3.54-10.94c0-.27.95-.33 1.29-.33.27 0 .49.14.49.43v1.31c0 .28-.22.43-.49.43-.35 0-1.29-.06-1.29-.33v-1.5z"/><path d="m330.47 74.02c.02.28-.11.41-.36.47-.32.08-1.15.21-2.05.21-2.32 0-3.27-.87-3.27-3.28v-2.13c0-2.4.95-3.28 3.44-3.28.8 0 1.66.09 1.97.19.21.06.33.11.33.47-.03.4-.11 1.03-.41 1.03-.21-.03-1.01-.17-1.72-.17-1.33 0-1.83.54-1.83 1.8v2.05c0 1.25.49 1.8 1.85 1.8.5 0 1.25-.08 1.72-.14.28 0 .32.49.33.99z"/><path d="m334.44 73.22c1.18 0 1.63-.28 1.63-.88 0-1.61-4.08-1.03-4.08-3.96 0-1.74 1.14-2.37 3.27-2.37 1 0 1.59.05 2.08.13.25.05.3.14.3.43 0 .49-.13 1.06-.46 1.06-.36-.03-.98-.13-1.77-.13-1.04 0-1.66.21-1.66.82 0 1.48 4.09.95 4.09 3.98 0 1.74-1.01 2.42-3.36 2.42-.88 0-1.78-.08-2.46-.3-.27-.11-.3-.21-.25-.49.16-.95.3-1.03.57-.96.63.16 1.26.27 2.1.27z"/></g></svg>