<svg height="326" viewBox="0 0 260 326" width="260" xmlns="http://www.w3.org/2000/svg"><g style="opacity:.2;fill:none;stroke:#fff;stroke-linecap:round;stroke-linejoin:round;stroke-width:2"><path d="m149.13 152.87 11.72-16.13-11.72-16.13-11.72 16.13 11.72 16.14z"/><path d="m149.13 152.87 18.96 6.16 11.72-16.13-18.96-6.16z"/><path d="m149.12 152.85v19.94s18.96 6.16 18.96 6.16v-19.93s-18.96-6.17-18.96-6.17z"/><path d="m130.16 178.95 18.96-6.16v-19.94s-18.96 6.16-18.96 6.16z"/><path d="m118.45 142.89 11.72 16.13 18.96-6.16-11.72-16.13-18.97 6.16z"/><path d="m130.16 178.96 18.96-6.16 18.97 6.16-18.96 6.17-18.96-6.17z"/><path d="m118.44 142.88 11.72 16.13v19.94s-11.73-16.13-11.73-16.13v-19.94z"/><path d="m149.12 120.59-11.72 16.13-18.97 6.16 11.72-16.14 18.97-6.16z"/><path d="m149.14 120.6 18.96 6.16 11.72 16.13-18.97-6.16-11.72-16.14z"/><path d="m179.81 142.88v19.94s-11.72 16.13-11.72 16.13v-19.94s11.72-16.13 11.72-16.13z"/><path d="m149.13 217.39 11.72-16.13-11.72-16.13-11.72 16.13 11.72 16.14z"/><path d="m168.1 126.76 18.96-6.16v-19.94s-18.96 6.16-18.96 6.16z"/><path d="m111.19 100.65v19.94s18.96 6.16 18.96 6.16v-19.93s-18.96-6.17-18.96-6.17z"/><path d="m179.81 162.82 11.72 16.13 18.96-6.16-11.72-16.13-18.97 6.16z"/><path d="m87.75 172.79 18.96 6.16 11.72-16.13-18.96-6.16z"/><path d="m118.43 195.09 11.72-16.13-11.72-16.13-11.72 16.13 11.72 16.14z"/><path d="m118.43 195.09 18.96 6.16 11.72-16.13-18.96-6.16z"/><path d="m179.81 195.1 11.72-16.13-11.72-16.13-11.72 16.13 11.72 16.14z"/><path d="m149.13 185.12 11.72 16.13 18.96-6.16-11.72-16.13-18.97 6.16z"/><path d="m198.77 136.74-18.96 6.16v19.94s18.96-6.16 18.96-6.16z"/><path d="m198.77 136.74-11.72-16.13-18.96 6.16 11.72 16.13 18.97-6.16z"/><path d="m149.12 100.65-18.96 6.16v19.94s18.96-6.16 18.96-6.16z"/><path d="m168.07 126.76v-19.94s-18.96-6.16-18.96-6.16v19.93s18.96 6.17 18.96 6.17z"/><path d="m99.47 136.71v19.94s18.96 6.16 18.96 6.16v-19.93s-18.96-6.17-18.96-6.17z"/><path d="m130.16 126.74-18.96-6.16-11.72 16.13 18.96 6.16z"/><path d="m149.12 68.39 11.72 16.13-11.72 16.13-11.72-16.13 11.72-16.14z"/><path d="m149.12 68.39 18.96-6.16 11.72 16.13-18.96 6.16z"/><path d="m149.11 68.4v-19.94s18.96-6.16 18.96-6.16v19.93s-18.96 6.17-18.96 6.17z"/><path d="m130.14 42.3 18.96 6.16v19.94s-18.96-6.16-18.96-6.16z"/><path d="m118.43 78.36 11.72-16.13 18.96 6.16-11.72 16.13-18.97-6.16z"/><path d="m68.79 126.74 18.96-6.16 11.72 16.13-18.96 6.16z"/><path d="m68.79 126.74v-19.94s18.96-6.16 18.96-6.16v19.93s-18.96 6.17-18.96 6.17z"/><path d="m68.8 126.75-18.96-6.16v-19.94s18.96 6.16 18.96 6.16z"/><path d="m38.12 136.72 11.72-16.13 18.96 6.16-11.72 16.13-18.97-6.16z"/><path d="m68.8 159.01-11.72-16.13 11.72-16.13 11.72 16.13-11.72 16.14z"/><path d="m99.47 221.18 11.72 16.13-11.72 16.13-11.72-16.13 11.72-16.14z"/><path d="m99.47 221.18 18.96-6.16 11.72 16.13-18.96 6.16z"/><path d="m99.47 221.19v-19.94s18.96-6.16 18.96-6.16v19.93s-18.96 6.17-18.96 6.17z"/><path d="m80.5 195.09 18.96 6.16v19.94s-18.96-6.16-18.96-6.16z"/><path d="m68.79 231.16 11.72-16.13 18.96 6.16-11.72 16.13-18.97-6.16z"/><path d="m198.78 221.19 11.72 16.13-11.72 16.13-11.72-16.13 11.72-16.14z"/><path d="m198.78 221.19 18.96-6.16 11.72 16.13-18.96 6.16z"/><path d="m198.77 221.2v-19.94s18.96-6.16 18.96-6.16v19.93s-18.96 6.17-18.96 6.17z"/><path d="m179.81 195.1 18.96 6.16v19.94s-18.96-6.16-18.96-6.16z"/><path d="m168.1 231.17 11.72-16.13 18.96 6.16-11.72 16.13-18.97-6.16z"/><path d="m229.45 126.76 11.72 16.13-11.72 16.13-11.72-16.13 11.72-16.14z"/><path d="m229.45 126.76 18.96-6.16 11.72 16.13-18.96 6.16z"/><path d="m229.44 126.77v-19.94s18.96-6.16 18.96-6.16v19.93s-18.96 6.17-18.96 6.17z"/><path d="m210.48 100.67 18.96 6.16v19.94s-18.96-6.16-18.96-6.16z"/><path d="m198.77 136.74 11.72-16.13 18.96 6.16-11.72 16.13-18.97-6.16z"/><path d="m210.48 100.67v19.94s-11.72 16.13-11.72 16.13v-19.94s11.72-16.13 11.72-16.13z"/><path d="m187.07 100.65 11.72 16.13v19.94s-11.73-16.13-11.73-16.13v-19.94z"/><path d="m210.52 172.76-11.72-16.13v-19.94s11.73 16.13 11.73 16.13v19.94z"/><path d="m229.47 159.02-18.96-6.16-11.72-16.13 18.97 6.16 11.72 16.14z"/><path d="m217.74 195.03-18.96 6.16-18.97-6.16 18.96-6.17 18.96 6.17z"/><path d="m210.52 172.76-11.72 16.13-18.97 6.16 11.72-16.14 18.97-6.16z"/><path d="m149.19 217.35 11.72-16.13 18.97-6.16-11.72 16.14-18.97 6.16z"/><path d="m168.12 231.13v-19.94s11.72-16.13 11.72-16.13v19.94s-11.72 16.13-11.72 16.13z"/><path d="m130.15 231.16-11.72-16.13v-19.94s11.73 16.13 11.73 16.13v19.94z"/><path d="m149.1 217.41-18.96-6.16-11.72-16.13 18.97 6.16 11.72 16.14z"/><path d="m87.74 172.86 18.96 6.16 11.72 16.13-18.97-6.16-11.72-16.14z"/><path d="m80.49 195.12 18.96-6.16 18.97 6.16-18.96 6.17-18.96-6.17z"/><path d="m68.79 159 11.72-16.13 18.97-6.16-11.72 16.14-18.97 6.16z"/><path d="m87.72 172.77v-19.94s11.72-16.13 11.72-16.13v19.94s-11.72 16.13-11.72 16.13z"/><path d="m111.12 100.65v19.94s-11.72 16.13-11.72 16.13v-19.94s11.72-16.13 11.72-16.13z"/><path d="m87.71 100.63 11.72 16.13v19.94s-11.73-16.13-11.73-16.13v-19.94z"/><path d="m118.43 78.36 18.96 6.16 11.72 16.13-18.97-6.16-11.72-16.14z"/><path d="m111.18 100.62 18.96-6.16 18.97 6.16-18.96 6.17-18.96-6.17z"/><path d="m187.01 100.59-18.96 6.16-18.97-6.16 18.96-6.17 18.96 6.17z"/><path d="m179.79 78.32-11.72 16.13-18.97 6.16 11.72-16.14 18.97-6.16z"/><path d="m99.4 84.51-11.72 16.13 11.72 16.13 11.72-16.13-11.72-16.14z"/><path d="m130.08 94.49-11.72-16.13-18.96 6.16 11.72 16.13 18.97-6.16z"/><path d="m198.73 84.45-18.96-6.16-11.72 16.13 18.96 6.16z"/><path d="m198.72 116.72 11.72-16.13-11.72-16.13-11.72 16.13 11.72 16.14z"/><path d="m229.45 178.96v-19.94s-18.96-6.16-18.96-6.16v19.93s18.96 6.17 18.96 6.17z"/><path d="m198.76 188.92 18.96 6.16 11.72-16.13-18.96-6.16z"/><path d="m149.09 237.36 18.96-6.16v-19.94s-18.96 6.16-18.96 6.16z"/><path d="m130.14 211.26v19.94s18.96 6.16 18.96 6.16v-19.93s-18.96-6.17-18.96-6.17z"/><path d="m68.74 178.93 11.72 16.13 18.96-6.16-11.72-16.13-18.97 6.16z"/><path d="m87.71 152.83-18.96 6.16v19.94s18.96-6.16 18.96-6.16z"/><path d="m80.46 195.06v19.94s-11.72 16.13-11.72 16.13v-19.94s11.72-16.13 11.72-16.13z"/><path d="m68.74 211.19 11.72-16.13-11.72-16.13-11.72 16.13 11.72 16.14z"/><path d="m49.77 237.29 18.96-6.16v-19.94s-18.96 6.16-18.96 6.16z"/><path d="m38.05 201.21 11.72 16.13 18.96-6.16-11.72-16.13-18.97 6.16z"/><path d="m68.79 231.16 18.96 6.16 11.72 16.13-18.97-6.16-11.72-16.14z"/><path d="m80.51 247.29-11.72-16.13-18.96 6.16 11.72 16.13 18.97-6.16z"/><path d="m99.47 273.39v-19.94s-18.96-6.16-18.96-6.16v19.93s18.96 6.17 18.96 6.17z"/><path d="m61.54 273.39 18.96-6.16v-19.94s-18.96 6.16-18.96 6.16z"/><path d="m99.46 253.49 11.72-16.13 18.97-6.16-11.72 16.14-18.97 6.16z"/><path d="m118.42 247.33-18.96 6.16v19.94s18.96-6.16 18.96-6.16z"/><path d="m149.11 237.36-18.96-6.16-11.72 16.13 18.96 6.16z"/><path d="m137.38 273.44v-19.94s-18.96-6.16-18.96-6.16v19.93s18.96 6.17 18.96 6.17z"/><path d="m168 231.16 18.96 6.16 11.72 16.13-18.97-6.16-11.72-16.14z"/><path d="m179.72 247.3-11.72-16.13-18.96 6.16 11.72 16.13 18.97-6.16z"/><path d="m160.75 273.39 18.96-6.16v-19.94s-18.96 6.16-18.96 6.16z"/><path d="m198.72 253.42 11.72-16.13 18.97-6.16-11.72 16.14-18.97 6.16z"/><path d="m217.69 247.26-18.96 6.16v19.94s18.96-6.16 18.96-6.16z"/><path d="m248.37 237.29-18.96-6.16-11.72 16.13 18.96 6.16z"/><path d="m236.65 273.37v-19.94s-18.96-6.16-18.96-6.16v19.93s18.96 6.17 18.96 6.17z"/><path d="m229.44 231.15-11.72-16.13v-19.94s11.73 16.13 11.73 16.13v19.94z"/><path d="m229.44 211.21v19.94s18.96 6.16 18.96 6.16v-19.93s-18.96-6.17-18.96-6.17z"/><path d="m229.44 178.95-11.72 16.13 11.72 16.13 11.72-16.13-11.72-16.14z"/><path d="m260.13 201.25-18.96-6.16-11.72 16.13 18.96 6.16z"/><path d="m229.47 159.08 11.72-16.13 18.97-6.16-11.72 16.14-18.97 6.16z"/><path d="m248.43 152.93-18.96 6.16v19.94s18.96-6.16 18.96-6.16z"/><path d="m267.39 179.03v-19.94s-18.96-6.16-18.96-6.16v19.93s18.96 6.17 18.96 6.17z"/><path d="m248.44 100.65-18.96 6.16-18.97-6.16 18.96-6.17 18.96 6.17z"/><path d="m229.48 94.48 18.96 6.16 11.72-16.13-18.96-6.16z"/><path d="m198.8 84.51 11.72 16.13 18.96-6.16-11.72-16.13-18.97 6.16z"/><path d="m229.49 62.22-11.72 16.13 11.72 16.13 11.72-16.13-11.72-16.14z"/><path d="m179.75 78.29-11.72-16.13v-19.94s11.73 16.13 11.73 16.13v19.94z"/><path d="m179.76 58.35v19.94s18.96 6.16 18.96 6.16v-19.93s-18.96-6.17-18.96-6.17z"/><path d="m210.44 48.39-18.96-6.16-11.72 16.13 18.96 6.16z"/><path d="m167.98 42.23-18.96 6.16-18.97-6.16 18.96-6.17 18.96 6.17z"/><path d="m149.01 36.07 18.96 6.16 11.72-16.13-18.96-6.16z"/><path d="m118.33 26.1 11.72 16.13 18.96-6.16-11.72-16.13-18.97 6.16z"/><path d="m149.02 3.8-11.72 16.13 11.72 16.13 11.72-16.13-11.72-16.14z"/><path d="m130.04 42.19v19.94s-11.72 16.13-11.72 16.13v-19.94s11.72-16.13 11.72-16.13z"/><path d="m118.32 58.32 11.72-16.13-11.72-16.13-11.72 16.13 11.72 16.14z"/><path d="m99.35 84.42 18.96-6.16v-19.94s-18.96 6.16-18.96 6.16z"/><path d="m87.63 48.34 11.72 16.13 18.96-6.16-11.72-16.13-18.97 6.16z"/><path d="m179.79 26.17-11.72 16.13 11.72 16.13 11.72-16.13-11.72-16.14z"/><path d="m279.1 142.89-18.96-6.16-11.72 16.13 18.96 6.16z"/><path d="m198.67 273.4v-19.94s-18.96-6.16-18.96-6.16v19.93s18.96 6.17 18.96 6.17z"/><path d="m87.81 100.58-18.96 6.16-18.97-6.16 18.96-6.17 18.96 6.17z"/><path d="m68.84 94.42 18.96 6.16 11.72-16.13-18.96-6.16z"/><path d="m68.85 62.15-11.72 16.13 11.72 16.13 11.72-16.13-11.72-16.14z"/><path d="m49.87 100.64v19.94s-11.72 16.13-11.72 16.13v-19.94s11.72-16.13 11.72-16.13z"/><path d="m38.15 116.76 11.72-16.13-11.72-16.13-11.72 16.13 11.72 16.14z"/><path d="m19.18 142.87 18.96-6.16v-19.94s-18.96 6.16-18.96 6.16z"/><path d="m7.46 106.79 11.72 16.13 18.96-6.16-11.72-16.13-18.97 6.16z"/><path d="m38.11 136.7 18.96 6.16 11.72 16.13-18.97-6.16-11.72-16.14z"/><path d="m49.83 152.84-11.72-16.13-18.96 6.16 11.72 16.13 18.97-6.16z"/><path d="m68.79 178.94v-19.94s-18.96-6.16-18.96-6.16v19.93s18.96 6.17 18.96 6.17z"/><path d="m30.85 178.93 18.96-6.16v-19.94s-18.96 6.16-18.96 6.16z"/><path d="m38.24 84.44 11.72 16.13 18.96-6.16-11.72-16.13-18.97 6.16z"/><path d="m160.72 273.38v-19.94s-11.72-16.13-11.72-16.13v19.94s11.72 16.13 11.72 16.13z"/><path d="m137.31 273.4 11.72-16.13v-19.94s-11.73 16.13-11.73 16.13v19.94z"/><path d="m38.06 201.18 18.96-6.16 11.72-16.13-18.97 6.16-11.72 16.14z"/><path d="m30.81 178.93 18.96 6.16 18.97-6.16-18.96-6.17-18.96 6.17z"/><path d="m68.67 62.13 11.72 16.13 18.97 6.16-11.72-16.14-18.97-6.16z"/><path d="m87.6 48.35v19.94s11.72 16.13 11.72 16.13v-19.94s-11.72-16.13-11.72-16.13z"/><path d="m210.45 48.38-11.72 16.13v19.94s11.73-16.13 11.73-16.13v-19.94z"/><path d="m229.4 62.13-18.96 6.16-11.72 16.13 18.97-6.16 11.72-16.14z"/><path d="m267.37 179.05-18.96-6.16-18.97 6.16 18.96 6.17 18.96-6.17z"/><path d="m260.15 201.32-11.72-16.13-18.97-6.16 11.72 16.14 18.97 6.16z"/><path d="m68.67 42.18 11.72-16.13-11.72-16.13-11.72 16.13 11.72 16.14z"/><path d="m68.67 42.18 18.96 6.16 11.72-16.13-18.96-6.16z"/><path d="m68.66 42.17v19.94s18.96 6.16 18.96 6.16v-19.93s-18.96-6.17-18.96-6.17z"/><path d="m49.7 68.27 18.96-6.16v-19.94s-18.96 6.16-18.96 6.16z"/><path d="m37.99 32.21 11.72 16.13 18.96-6.16-11.72-16.13-18.97 6.16z"/><path d="m19.08 195.06 11.72-16.13-11.72-16.13-11.72 16.13 11.72 16.14z"/><path d="m19.08 195.06 18.96 6.16 11.72-16.13-18.96-6.16z"/><path d="m19.08 195.04v19.94s18.96 6.16 18.96 6.16v-19.93s-18.96-6.17-18.96-6.17z"/><path d="m.11 221.15 18.96-6.16v-19.94s-18.95 6.15-18.95 6.15v19.94z"/><path d="m-11.6 185.08 11.72 16.13 18.96-6.16-11.72-16.13-18.97 6.16z"/><path d="m149 289.51 11.72-16.13-11.72-16.13-11.72 16.13 11.72 16.14z"/><path d="m149 289.51 18.96 6.16 11.72-16.13-18.96-6.16z"/><path d="m148.99 289.5v19.94s18.96 6.16 18.96 6.16v-19.93s-18.96-6.17-18.96-6.17z"/><path d="m130.03 315.6 18.96-6.16v-19.94s-18.96 6.16-18.96 6.16z"/><path d="m118.32 279.54 11.72 16.13 18.96-6.16-11.72-16.13-18.97 6.16z"/><path d="m248.44 185.19 11.72 16.13 18.96-6.16-11.72-16.13-18.97 6.16z"/><path d="m229.41 42.2 11.72-16.13-11.72-16.13-11.72 16.13 11.72 16.14z"/><path d="m229.41 42.2 18.96 6.16 11.72-16.13-18.96-6.16z"/><path d="m229.4 42.18v19.94s18.96 6.16 18.96 6.16v-19.93s-18.96-6.17-18.96-6.17z"/><path d="m210.44 68.29 18.96-6.16v-19.94s-18.96 6.16-18.96 6.16z"/><path d="m198.72 32.22 11.72 16.13 18.96-6.16-11.72-16.13-18.97 6.16z"/><path d="m99.46 305.69 11.72-16.13-11.72-16.13-11.72 16.13 11.72 16.14z"/><path d="m99.46 305.69 18.96 6.16 11.72-16.13-18.96-6.16z"/><path d="m99.45 305.68v19.94s18.96 6.16 18.96 6.16v-19.93s-18.96-6.17-18.96-6.17z"/><path d="m80.49 331.78 18.96-6.16v-19.94s-18.96 6.16-18.96 6.16z"/><path d="m68.78 295.72 11.72 16.13 18.96-6.16-11.72-16.13-18.97 6.16z"/><path d="m198.64 305.65 11.72-16.13-11.72-16.13-11.72 16.13 11.72 16.14z"/><path d="m198.64 305.65 18.96 6.16 11.72-16.13-18.96-6.16z"/><path d="m198.63 305.64v19.94s18.96 6.16 18.96 6.16v-19.93s-18.96-6.17-18.96-6.17z"/><path d="m179.67 331.74 18.96-6.16v-19.94s-18.96 6.16-18.96 6.16z"/><path d="m167.95 295.67 11.72 16.13 18.96-6.16-11.72-16.13-18.97 6.16z"/><path d="m248.43 237.38 11.72 16.13 18.96-6.16-11.72-16.13-18.97 6.16z"/><path d="m248.37 48.35 11.72 16.13 18.96-6.16-11.72-16.13-18.97 6.16z"/><path d="m198.66 0v19.94s18.96 6.16 18.96 6.16v-19.94s-18.96-6.16-18.96-6.16z"/><path d="m179.7 26.1 18.96-6.16v-19.94s-18.96 6.16-18.96 6.16z"/><path d="m99.36-.05v19.94s18.96 6.16 18.96 6.16v-19.93s-18.96-6.17-18.96-6.17z"/><path d="m80.4 26.06 18.96-6.16v-19.95s-18.96 6.16-18.96 6.16v19.94z"/><path d="m19.02 58.3 11.72-16.13-11.72-16.13-11.72 16.13 11.72 16.14z"/><path d="m19.02 58.3 18.96 6.16 11.72-16.13-18.96-6.16z"/><path d="m19.01 58.29v19.94s18.96 6.16 18.96 6.16v-19.93s-18.96-6.17-18.96-6.17z"/><path d="m.05 84.39 18.96-6.16v-19.94s-18.95 6.16-18.95 6.16v19.94z"/><path d="m-11.66 48.33 11.72 16.12 18.96-6.16-11.72-16.13-18.97 6.16z"/><path d="m-11.5 152.84 18.96 6.16 11.72-16.13-18.95-6.16-11.72 16.13z"/><path d="m-11.51 152.82v19.94s18.96 6.16 18.96 6.16v-19.93s-18.96-6.17-18.96-6.17z"/><path d="m19.08 247.24 11.72-16.13-11.72-16.13-11.72 16.13 11.72 16.14z"/><path d="m19.08 247.24 18.96 6.16 11.72-16.13-18.96-6.16z"/><path d="m19.07 247.23v19.94s18.96 6.16 18.96 6.16v-19.93s-18.96-6.17-18.96-6.17z"/><path d="m.1 273.33 18.96-6.16v-19.94s-18.95 6.16-18.95 6.16v19.94z"/><path d="m-11.61 237.27 11.72 16.12 18.96-6.16-11.72-16.13-18.97 6.16z"/><path d="m-11.67 100.52 18.96 6.16 11.72-16.13-18.96-6.16z"/><path d="m-11.68 100.51v19.94s18.96 6.16 18.96 6.16v-19.93s-18.96-6.17-18.96-6.17z"/><path d="m149.02-16.13v19.93s18.96 6.16 18.96 6.16v-19.93s-18.96-6.17-18.96-6.17z"/><path d="m130.06 9.97 18.96-6.16v-19.94s-18.96 6.16-18.96 6.16z"/><path d="m248.28 289.53 11.72-16.13-11.72-16.13-11.72 16.13 11.72 16.14z"/><path d="m248.28 289.53 18.96 6.16 11.72-16.13-18.96-6.16z"/><path d="m229.31 315.62 18.96-6.16v-19.94s-18.96 6.16-18.96 6.16z"/><path d="m217.6 279.55 11.72 16.13 18.96-6.16-11.72-16.13-18.97 6.16z"/><path d="m49.81 289.56 11.72-16.13-11.72-16.13-11.72 16.13 11.72 16.14z"/><path d="m49.81 289.56 18.96 6.16 11.72-16.13-18.96-6.16z"/><path d="m49.81 289.55v19.94s18.96 6.16 18.96 6.16v-19.93s-18.96-6.17-18.96-6.17z"/><path d="m19.13 279.58 11.72 16.13 18.96-6.16-11.72-16.13-18.97 6.16z"/><path d="m248.41 48.47 11.72 16.13v19.94s-11.73-16.13-11.73-16.13v-19.94z"/><path d="m229.49 62.22 18.96 6.16 11.72 16.13-18.97-6.16-11.72-16.14z"/><path d="m229.53 295.7-18.96-6.16-11.72-16.13 18.97 6.16 11.72 16.14z"/><path d="m279.17 215.04-11.72 16.13-18.97 6.16 11.72-16.14 18.97-6.16z"/><path d="m198.79 273.45-11.72 16.13-18.97 6.16 11.72-16.14 18.97-6.16z"/><path d="m198.77 273.42-18.96-6.16-18.97 6.16 18.96 6.17 18.96-6.17z"/><path d="m236.71 273.45-18.96-6.16-18.97 6.16 18.96 6.17 18.96-6.17z"/><path d="m248.59 237.24 11.72 16.13v19.94s-11.73-16.13-11.73-16.13v-19.94z"/><path d="m248.43 237.38v19.94s-11.72 16.13-11.72 16.13v-19.94s11.72-16.13 11.72-16.13z"/><path d="m260.25 201.29v19.94s-11.72 16.13-11.72 16.13v-19.94s11.72-16.13 11.72-16.13z"/><path d="m38.17 273.43v-19.94s11.72-16.13 11.72-16.13v19.94s-11.72 16.13-11.72 16.13z"/><path d="m130.22 295.72-18.96-6.16-11.72-16.13 18.97 6.16 11.72 16.14z"/><path d="m49.83 237.32-18.96-6.16-11.72-16.13 18.97 6.16 11.72 16.14z"/><path d="m49.85 237.29v-19.94s-11.72-16.13-11.72-16.13v19.94s11.72 16.13 11.72 16.13z"/><path d="m61.54 273.39v-19.94s-11.72-16.13-11.72-16.13v19.94s11.72 16.13 11.72 16.13z"/><path d="m99.65 273.5-11.72 16.13-18.97 6.16 11.72-16.14 18.97-6.16z"/><path d="m99.47 273.39-18.96 6.16-18.97-6.16 18.96-6.17 18.96 6.17z"/><path d="m137.45 273.48-18.96 6.16-18.97-6.16 18.96-6.17 18.96 6.17z"/><path d="m.3 84.51 18.96-6.16 18.97 6.16-18.96 6.17z"/><path d="m7.54 178.95v-19.94s11.72-16.13 11.72-16.13v19.94s-11.72 16.13-11.72 16.13z"/><path d="m38.24 84.44v-19.94s11.72-16.13 11.72-16.13v19.94s-11.72 16.13-11.72 16.13z"/><path d="m38.27 84.45 18.96-6.16 11.72-16.13-18.97 6.16-11.72 16.14z"/><path d="m7.56 106.73 18.96-6.16 11.72-16.13-18.97 6.16-11.72 16.14z"/><path d="m19.23 143.01-18.97-6.16-11.72-16.13 18.97 6.16 11.72 16.14z"/><path d="m248.18 100.52 18.96 6.16 11.72-16.13-18.96-6.16z"/><path d="m248.17 100.51v19.94s18.96 6.16 18.96 6.16v-19.93s-18.96-6.17-18.96-6.17z"/><path d="m279.08 143.01-18.96-6.16-11.72-16.13 18.97 6.16 11.72 16.14z"/><path d="m19.28 142.8-11.72-16.13v-19.94s11.73 16.13 11.73 16.13v19.94z"/><path d="m30.93 178.94-11.72-16.13v-19.94s11.73 16.13 11.73 16.13v19.94z"/><path d="m168.11-10.03 11.72 16.13v19.94s-11.73-16.13-11.73-16.13v-19.94z"/><path d="m80.53 26.05 18.96-6.16 18.97 6.16-18.96 6.17-18.96-6.17z"/><path d="m179.9 26.04 18.96-6.16 18.97 6.16-18.96 6.17-18.96-6.17z"/><path d="m179.9 26.07 11.72 16.13 18.97 6.16-11.72-16.14-18.97-6.16z"/><path d="m149.22 3.74 11.72 16.13 18.97 6.16-11.72-16.14-18.97-6.16z"/><path d="m118.32 26.05v-19.93s11.72-16.13 11.72-16.13v19.94s-11.72 16.13-11.72 16.13z"/><path d="m149.02 309.43v19.94s18.96 6.16 18.96 6.16v-19.93s-18.96-6.17-18.96-6.17z"/><path d="m130.06 335.53 18.96-6.16v-19.94s-18.96 6.16-18.96 6.16z"/><path d="m118.54 26.04 11.72-16.13 18.97-6.16-11.72 16.14-18.97 6.16z"/><path d="m87.76 48.29 11.72-16.13 18.97-6.16-11.72 16.14-18.97 6.16z"/><path d="m38.09 325.63 11.72-16.13v-19.94s-11.73 16.13-11.73 16.13v19.94z"/><path d="m19.12 311.85 18.96-6.16 11.72-16.13-18.97 6.16-11.72 16.14z"/><path d="m19.12 331.79 18.96-6.16v-19.94s-18.96 6.16-18.96 6.16z"/><path d="m19.12 6.14 18.96-6.16v-19.94s-18.96 6.16-18.96 6.16z"/><path d="m38.09 325.63 18.96 6.16 11.72-16.13-18.96-6.16z"/><path d="m19.12 311.85 11.72-16.13-11.72-16.13-11.72 16.13 11.72 16.14z"/><path d="m.1 273.33 18.96-6.16 18.97 6.16-18.96 6.17z"/><path d="m80.49 331.77-11.72-16.13v-19.94s11.73 16.13 11.73 16.13v19.94z"/><path d="m-11.62 289.46 18.96 6.16 11.72-16.13-18.96-6.16z"/><path d="m.16 305.69v19.94s18.96 6.16 18.96 6.16v-19.93s-18.96-6.17-18.96-6.17z"/><path d="m-11.62 289.46 18.96 6.16 11.72 16.13-18.96-6.15z"/><path d="m279.12 311.87-11.72-16.13-18.97-6.16 11.72 16.14 18.97 6.16z"/><path d="m260.15 325.65v-19.94s-11.72-16.13-11.72-16.13v19.94s11.72 16.13 11.72 16.13z"/><path d="m260.15 325.65-11.72-16.13-18.96 6.16 11.72 16.13 18.97-6.16z"/><path d="m217.5 331.79v-19.94s11.72-16.13 11.72-16.13v19.94s-11.72 16.13-11.72 16.13z"/><path d="m168.1 295.75 11.72 16.13v19.94s-11.73-16.13-11.73-16.13v-19.94z"/><path d="m129.95 295.68v19.94s-11.72 16.13-11.72 16.13v-19.94s11.72-16.13 11.72-16.13z"/><path d="m260-.18-18.96 6.16v19.94s18.96-6.16 18.96-6.16z"/><path d="m217.53 25.77v-19.93s11.72-16.13 11.72-16.13v19.93s-11.72 16.13-11.72 16.13z"/><path d="m240.98 25.77-11.72-16.13v-19.94s11.73 16.13 11.73 16.13v19.94z"/><path d="m217.53 351.68v-19.94s11.72-16.13 11.72-16.13v19.94s-11.72 16.13-11.72 16.13z"/><path d="m240.98 351.68-11.72-16.13v-19.94s11.73 16.13 11.73 16.13v19.94z"/><path d="m37.93 0v19.94s18.96 6.16 18.96 6.16v-19.92s-18.96-6.18-18.96-6.18z"/><path d="m37.94 0-18.96 6.16v19.94s18.96-6.16 18.96-6.16z"/><path d="m0 0v19.94s18.96 6.16 18.96 6.16v-19.93s-18.96-6.17-18.96-6.17z"/><path d="m-11.82 48.34 11.72-16.13 18.97-6.16-11.72 16.14-18.97 6.16z"/><path d="m49.48 48.42-18.96-6.16-11.72-16.13 18.97 6.16 11.72 16.14z"/><path d="m56.73 26.11-18.96 6.16-18.97-6.16 18.96-6.17 18.96 6.17z"/><path d="m56.94 26.05v-19.93s11.72-16.13 11.72-16.13v19.93s-11.72 16.13-11.72 16.13z"/><path d="m80.39 26.05-11.72-16.13v-19.94s11.73 16.13 11.73 16.13v19.94z"/><path d="m56.94 351.71v-19.94s11.72-16.13 11.72-16.13v19.94s-11.72 16.13-11.72 16.13z"/><path d="m80.39 351.71-11.72-16.13v-19.94s11.73 16.13 11.73 16.13v19.94z"/><path d="m19.26 215.25-11.72 16.13-18.97 6.16 11.73-16.13 18.97-6.16z"/></g></svg>
